<?xml version="1.0" encoding="iso-8859-1"?>
<!-- Uploaded to: SVG Repo, www.svgrepo.com, Generator: SVG Repo Mixer Tools -->
<svg height="800px" width="800px" version="1.1" id="Layer_1" xmlns="http://www.w3.org/2000/svg" xmlns:xlink="http://www.w3.org/1999/xlink" 
	 viewBox="0 0 512 512" xml:space="preserve">
<g>
	<path style="fill:#1E0478;" d="M508.451,201.982c4.733,4.733,4.733,12.396,0,17.115l-36.892,36.906l36.892,36.906
		c4.733,4.719,4.733,12.383,0,17.115c-2.353,2.353-5.459,3.536-8.551,3.536s-6.198-1.183-8.551-3.536l-36.906-36.906l-36.906,36.906
		c-2.366,2.353-5.459,3.536-8.551,3.536c-3.106,0-6.198-1.183-8.564-3.536c-4.719-4.733-4.719-12.396,0-17.115l36.906-36.906
		l-36.906-36.906c-4.719-4.719-4.719-12.383,0-17.115c4.733-4.719,12.396-4.719,17.115,0l36.906,36.906l36.906-36.906
		C496.068,197.263,503.732,197.263,508.451,201.982z"/>
	<path style="fill:#1E0478;" d="M335.808,89.329v333.347c0,12.53-6.857,23.972-17.895,29.888
		c-5.015,2.675-10.514,4.007-15.986,4.007c-6.574,0-13.122-1.909-18.796-5.701l-145.646-97.097H82.268
		c-14.157,0-25.787-10.931-26.957-24.792h-7.798C21.31,328.981,0,307.671,0,281.467v-50.928c0-26.204,21.31-47.513,47.513-47.513
		h7.798c1.17-13.861,12.799-24.792,26.957-24.792h55.217l145.646-97.097c10.406-6.951,23.743-7.596,34.781-1.694
		C328.951,65.358,335.808,76.799,335.808,89.329z M308.918,422.677V89.329c0-3.791-2.581-5.58-3.684-6.171
		c-1.116-0.592-4.047-1.748-7.193,0.35l-143.038,95.363v154.264l143.038,95.363c3.146,2.097,6.077,0.941,7.193,0.35
		C306.337,428.256,308.918,426.468,308.918,422.677z M128.114,326.883V185.123H82.268c-0.094,0-0.188,0.081-0.188,0.175v130.239
		v11.173c0,0.094,0.094,0.175,0.188,0.175H128.114L128.114,326.883z M55.19,302.091v-92.177h-7.677
		c-11.374,0-20.624,9.25-20.624,20.624v50.928c0,11.374,9.25,20.624,20.624,20.624H55.19z"/>
</g>
<path style="fill:#94E7EF;" d="M308.918,89.329v333.347c0,3.791-2.581,5.58-3.684,6.171c-1.116,0.592-4.047,1.748-7.193-0.35
	l-143.038-95.363V178.871l143.038-95.363c3.146-2.097,6.077-0.941,7.193-0.35C306.337,83.75,308.918,85.538,308.918,89.329z"/>
<path style="fill:#6F7CCD;" d="M128.114,185.123v141.761H82.268c-0.094,0-0.188-0.081-0.188-0.175v-11.173V185.298
	c0-0.094,0.094-0.175,0.188-0.175L128.114,185.123L128.114,185.123z"/>
<path style="fill:#FFFFFF;" d="M55.19,209.915v92.177h-7.677c-11.374,0-20.624-9.25-20.624-20.624v-50.928
	c0-11.374,9.25-20.624,20.624-20.624H55.19z"/>
</svg>